<mxfile host="app.diagrams.net" agent="Mozilla/5.0 (Macintosh; Intel Mac OS X 10_15_7) AppleWebKit/537.36 (KHTML, like Gecko) Chrome/129.0.0.0 Safari/537.36" version="24.7.17">
  <diagram name="Page-1" id="NfButQZjhZ4wamLMoBEm">
    <mxGraphModel dx="1207" dy="1241" grid="0" gridSize="10" guides="1" tooltips="1" connect="1" arrows="1" fold="1" page="0" pageScale="1" pageWidth="850" pageHeight="1100" math="0" shadow="0">
      <root>
        <mxCell id="0" />
        <mxCell id="1" parent="0" />
        <mxCell id="r2IzdM8W7e8GS-kkfY3J-1" value="" style="edgeStyle=none;curved=1;rounded=0;orthogonalLoop=1;jettySize=auto;html=1;fontSize=12;startSize=8;endSize=8;exitX=0.5;exitY=0;exitDx=0;exitDy=0;" edge="1" parent="1" source="r2IzdM8W7e8GS-kkfY3J-3" target="r2IzdM8W7e8GS-kkfY3J-8">
          <mxGeometry relative="1" as="geometry">
            <Array as="points">
              <mxPoint x="360" y="30" />
            </Array>
          </mxGeometry>
        </mxCell>
        <mxCell id="r2IzdM8W7e8GS-kkfY3J-2" value="Patient logs in" style="edgeLabel;html=1;align=center;verticalAlign=middle;resizable=0;points=[];fontSize=12;" vertex="1" connectable="0" parent="r2IzdM8W7e8GS-kkfY3J-1">
          <mxGeometry x="0.1307" y="-15" relative="1" as="geometry">
            <mxPoint as="offset" />
          </mxGeometry>
        </mxCell>
        <mxCell id="r2IzdM8W7e8GS-kkfY3J-18" value="" style="edgeStyle=none;curved=1;rounded=0;orthogonalLoop=1;jettySize=auto;html=1;fontSize=12;startSize=8;endSize=8;" edge="1" parent="1" source="r2IzdM8W7e8GS-kkfY3J-3" target="r2IzdM8W7e8GS-kkfY3J-17">
          <mxGeometry relative="1" as="geometry">
            <Array as="points">
              <mxPoint x="170" y="219" />
            </Array>
          </mxGeometry>
        </mxCell>
        <mxCell id="r2IzdM8W7e8GS-kkfY3J-19" value="Patient has no account" style="edgeLabel;html=1;align=center;verticalAlign=middle;resizable=0;points=[];fontSize=12;" vertex="1" connectable="0" parent="r2IzdM8W7e8GS-kkfY3J-18">
          <mxGeometry x="0.2855" y="12" relative="1" as="geometry">
            <mxPoint as="offset" />
          </mxGeometry>
        </mxCell>
        <mxCell id="r2IzdM8W7e8GS-kkfY3J-3" value="Login GUI" style="rounded=0;whiteSpace=wrap;html=1;arcSize=24;fillColor=#ffffc0;strokeColor=#ff0000;shadow=0;comic=0;labelBackgroundColor=none;fontFamily=Verdana;fontSize=12;fontColor=#000000;align=center;shape=ellipse;aspect=fixed;perimeter=ellipsePerimeter;" vertex="1" parent="1">
          <mxGeometry x="240" y="130" width="120" height="60" as="geometry" />
        </mxCell>
        <mxCell id="r2IzdM8W7e8GS-kkfY3J-7" value="AccountCreator Page" style="rounded=1;whiteSpace=wrap;html=1;arcSize=24;fillColor=#ffffc0;strokeColor=#ff0000;shadow=0;comic=0;labelBackgroundColor=none;fontFamily=Verdana;fontSize=12;fontColor=#000000;align=center;" vertex="1" parent="1">
          <mxGeometry x="225" y="527" width="120" height="60" as="geometry" />
        </mxCell>
        <mxCell id="r2IzdM8W7e8GS-kkfY3J-23" value="" style="edgeStyle=none;curved=1;rounded=0;orthogonalLoop=1;jettySize=auto;html=1;fontSize=12;startSize=8;endSize=8;" edge="1" parent="1" source="r2IzdM8W7e8GS-kkfY3J-8" target="r2IzdM8W7e8GS-kkfY3J-22">
          <mxGeometry relative="1" as="geometry">
            <Array as="points">
              <mxPoint x="665" y="214" />
            </Array>
          </mxGeometry>
        </mxCell>
        <mxCell id="r2IzdM8W7e8GS-kkfY3J-26" value="patient views hospitals" style="edgeLabel;html=1;align=center;verticalAlign=middle;resizable=0;points=[];fontSize=12;" vertex="1" connectable="0" parent="r2IzdM8W7e8GS-kkfY3J-23">
          <mxGeometry x="-0.1542" y="-4" relative="1" as="geometry">
            <mxPoint x="-1" as="offset" />
          </mxGeometry>
        </mxCell>
        <mxCell id="r2IzdM8W7e8GS-kkfY3J-8" value="HomePage" style="ellipse;whiteSpace=wrap;html=1;aspect=fixed;" vertex="1" parent="1">
          <mxGeometry x="600" y="-10" width="127" height="68.38" as="geometry" />
        </mxCell>
        <mxCell id="r2IzdM8W7e8GS-kkfY3J-15" value="" style="edgeStyle=none;orthogonalLoop=1;jettySize=auto;html=1;rounded=0;fontSize=12;startSize=8;endSize=8;curved=1;exitX=1;exitY=0;exitDx=0;exitDy=0;entryX=0.5;entryY=1;entryDx=0;entryDy=0;" edge="1" parent="1" source="r2IzdM8W7e8GS-kkfY3J-7" target="r2IzdM8W7e8GS-kkfY3J-3">
          <mxGeometry width="140" relative="1" as="geometry">
            <mxPoint x="460" y="360" as="sourcePoint" />
            <mxPoint x="600" y="360" as="targetPoint" />
            <Array as="points">
              <mxPoint x="410" y="320" />
            </Array>
          </mxGeometry>
        </mxCell>
        <mxCell id="r2IzdM8W7e8GS-kkfY3J-16" value="patient Account is created&amp;nbsp;&lt;div&gt;and patient is returned to log in&lt;/div&gt;" style="edgeLabel;html=1;align=center;verticalAlign=middle;resizable=0;points=[];fontSize=12;" vertex="1" connectable="0" parent="r2IzdM8W7e8GS-kkfY3J-15">
          <mxGeometry x="0.1215" y="28" relative="1" as="geometry">
            <mxPoint as="offset" />
          </mxGeometry>
        </mxCell>
        <mxCell id="r2IzdM8W7e8GS-kkfY3J-17" value="AccountCreationGUI" style="rounded=1;whiteSpace=wrap;html=1;arcSize=24;fillColor=#ffffc0;strokeColor=#ff0000;shadow=0;comic=0;labelBackgroundColor=none;fontFamily=Verdana;fontSize=12;fontColor=#000000;align=center;shape=ellipse;perimeter=ellipsePerimeter;" vertex="1" parent="1">
          <mxGeometry x="121" y="254" width="119" height="101" as="geometry" />
        </mxCell>
        <mxCell id="r2IzdM8W7e8GS-kkfY3J-20" value="" style="edgeStyle=none;curved=1;rounded=0;orthogonalLoop=1;jettySize=auto;html=1;fontSize=12;startSize=8;endSize=8;exitX=0.5;exitY=1;exitDx=0;exitDy=0;entryX=0;entryY=0;entryDx=0;entryDy=0;" edge="1" parent="1" source="r2IzdM8W7e8GS-kkfY3J-17" target="r2IzdM8W7e8GS-kkfY3J-7">
          <mxGeometry relative="1" as="geometry">
            <mxPoint x="211" y="411" as="sourcePoint" />
            <mxPoint x="148" y="519" as="targetPoint" />
            <Array as="points">
              <mxPoint x="141" y="443" />
            </Array>
          </mxGeometry>
        </mxCell>
        <mxCell id="r2IzdM8W7e8GS-kkfY3J-21" value="patient adds info clicks create account" style="edgeLabel;html=1;align=center;verticalAlign=middle;resizable=0;points=[];fontSize=12;" vertex="1" connectable="0" parent="r2IzdM8W7e8GS-kkfY3J-20">
          <mxGeometry x="0.2855" y="12" relative="1" as="geometry">
            <mxPoint as="offset" />
          </mxGeometry>
        </mxCell>
        <mxCell id="r2IzdM8W7e8GS-kkfY3J-25" value="patient logs out" style="edgeStyle=none;curved=1;rounded=0;orthogonalLoop=1;jettySize=auto;html=1;fontSize=12;startSize=8;endSize=8;" edge="1" parent="1" source="r2IzdM8W7e8GS-kkfY3J-22" target="r2IzdM8W7e8GS-kkfY3J-24">
          <mxGeometry relative="1" as="geometry">
            <Array as="points">
              <mxPoint x="1036" y="164" />
            </Array>
          </mxGeometry>
        </mxCell>
        <mxCell id="r2IzdM8W7e8GS-kkfY3J-22" value="Hospital Wait times GUI" style="rounded=1;whiteSpace=wrap;html=1;arcSize=24;fillColor=#ffffc0;strokeColor=#ff0000;shadow=0;comic=0;labelBackgroundColor=none;fontFamily=Verdana;fontSize=12;fontColor=#000000;align=center;" vertex="1" parent="1">
          <mxGeometry x="814" y="150" width="130" height="70" as="geometry" />
        </mxCell>
        <mxCell id="r2IzdM8W7e8GS-kkfY3J-24" value="Logout GUI" style="rounded=1;whiteSpace=wrap;html=1;arcSize=24;fillColor=#ffffc0;strokeColor=#ff0000;shadow=0;comic=0;labelBackgroundColor=none;fontFamily=Verdana;fontSize=12;fontColor=#000000;align=center;" vertex="1" parent="1">
          <mxGeometry x="1100" y="-10" width="130" height="70" as="geometry" />
        </mxCell>
      </root>
    </mxGraphModel>
  </diagram>
</mxfile>
